<?xml version="1.0" encoding="utf-8" standalone="no"?>
<!DOCTYPE svg PUBLIC "-//W3C//DTD SVG 1.1//EN"
  "http://www.w3.org/Graphics/SVG/1.1/DTD/svg11.dtd">
<svg xmlns:xlink="http://www.w3.org/1999/xlink" width="928.490625pt" height="301.83625pt" viewBox="0 0 928.490625 301.83625" xmlns="http://www.w3.org/2000/svg" version="1.1">
 <metadata>
  <rdf:RDF xmlns:dc="http://purl.org/dc/elements/1.1/" xmlns:cc="http://creativecommons.org/ns#" xmlns:rdf="http://www.w3.org/1999/02/22-rdf-syntax-ns#">
   <cc:Work>
    <dc:type rdf:resource="http://purl.org/dc/dcmitype/StillImage"/>
    <dc:date>2025-12-04T00:45:59.646093</dc:date>
    <dc:format>image/svg+xml</dc:format>
    <dc:creator>
     <cc:Agent>
      <dc:title>Matplotlib v3.10.7, https://matplotlib.org/</dc:title>
     </cc:Agent>
    </dc:creator>
   </cc:Work>
  </rdf:RDF>
 </metadata>
 <defs>
  <style type="text/css">*{stroke-linejoin: round; stroke-linecap: butt}</style>
 </defs>
 <g id="figure_1">
  <g id="patch_1">
   <path d="M 0 301.83625 
L 928.490625 301.83625 
L 928.490625 -0 
L 0 -0 
z
" style="fill: #ffffff"/>
  </g>
  <g id="axes_1">
   <g id="patch_2">
    <path d="M 23.878125 277.958125 
L 279.518125 277.958125 
L 279.518125 22.318125 
L 23.878125 22.318125 
z
" style="fill: #ffffff"/>
   </g>
   <g id="QuadMesh_1">
    <path d="M 23.878125 22.318125 
L 279.518125 22.318125 
L 279.518125 277.958125 
L 23.878125 277.958125 
L 23.878125 22.318125 
" style="fill: #ffffff; stroke: #808080; stroke-width: 0.5"/>
   </g>
   <g id="matplotlib.axis_1">
    <g id="xtick_1">
     <g id="line2d_1">
      <defs>
       <path id="m65e3e6a87a" d="M 0 0 
L 0 3.5 
" style="stroke: #000000; stroke-width: 0.8"/>
      </defs>
      <g>
       <use xlink:href="#m65e3e6a87a" x="151.698125" y="277.958125" style="stroke: #000000; stroke-width: 0.8"/>
      </g>
     </g>
     <g id="text_1">
      <!-- aflplusplus -->
      <g transform="translate(124.811406 292.556562) scale(0.1 -0.1)">
       <defs>
        <path id="DejaVuSans-61" d="M 2194 1759 
Q 1497 1759 1228 1600 
Q 959 1441 959 1056 
Q 959 750 1161 570 
Q 1363 391 1709 391 
Q 2188 391 2477 730 
Q 2766 1069 2766 1631 
L 2766 1759 
L 2194 1759 
z
M 3341 1997 
L 3341 0 
L 2766 0 
L 2766 531 
Q 2569 213 2275 61 
Q 1981 -91 1556 -91 
Q 1019 -91 701 211 
Q 384 513 384 1019 
Q 384 1609 779 1909 
Q 1175 2209 1959 2209 
L 2766 2209 
L 2766 2266 
Q 2766 2663 2505 2880 
Q 2244 3097 1772 3097 
Q 1472 3097 1187 3025 
Q 903 2953 641 2809 
L 641 3341 
Q 956 3463 1253 3523 
Q 1550 3584 1831 3584 
Q 2591 3584 2966 3190 
Q 3341 2797 3341 1997 
z
" transform="scale(0.015625)"/>
        <path id="DejaVuSans-66" d="M 2375 4863 
L 2375 4384 
L 1825 4384 
Q 1516 4384 1395 4259 
Q 1275 4134 1275 3809 
L 1275 3500 
L 2222 3500 
L 2222 3053 
L 1275 3053 
L 1275 0 
L 697 0 
L 697 3053 
L 147 3053 
L 147 3500 
L 697 3500 
L 697 3744 
Q 697 4328 969 4595 
Q 1241 4863 1831 4863 
L 2375 4863 
z
" transform="scale(0.015625)"/>
        <path id="DejaVuSans-6c" d="M 603 4863 
L 1178 4863 
L 1178 0 
L 603 0 
L 603 4863 
z
" transform="scale(0.015625)"/>
        <path id="DejaVuSans-70" d="M 1159 525 
L 1159 -1331 
L 581 -1331 
L 581 3500 
L 1159 3500 
L 1159 2969 
Q 1341 3281 1617 3432 
Q 1894 3584 2278 3584 
Q 2916 3584 3314 3078 
Q 3713 2572 3713 1747 
Q 3713 922 3314 415 
Q 2916 -91 2278 -91 
Q 1894 -91 1617 61 
Q 1341 213 1159 525 
z
M 3116 1747 
Q 3116 2381 2855 2742 
Q 2594 3103 2138 3103 
Q 1681 3103 1420 2742 
Q 1159 2381 1159 1747 
Q 1159 1113 1420 752 
Q 1681 391 2138 391 
Q 2594 391 2855 752 
Q 3116 1113 3116 1747 
z
" transform="scale(0.015625)"/>
        <path id="DejaVuSans-75" d="M 544 1381 
L 544 3500 
L 1119 3500 
L 1119 1403 
Q 1119 906 1312 657 
Q 1506 409 1894 409 
Q 2359 409 2629 706 
Q 2900 1003 2900 1516 
L 2900 3500 
L 3475 3500 
L 3475 0 
L 2900 0 
L 2900 538 
Q 2691 219 2414 64 
Q 2138 -91 1772 -91 
Q 1169 -91 856 284 
Q 544 659 544 1381 
z
M 1991 3584 
L 1991 3584 
z
" transform="scale(0.015625)"/>
        <path id="DejaVuSans-73" d="M 2834 3397 
L 2834 2853 
Q 2591 2978 2328 3040 
Q 2066 3103 1784 3103 
Q 1356 3103 1142 2972 
Q 928 2841 928 2578 
Q 928 2378 1081 2264 
Q 1234 2150 1697 2047 
L 1894 2003 
Q 2506 1872 2764 1633 
Q 3022 1394 3022 966 
Q 3022 478 2636 193 
Q 2250 -91 1575 -91 
Q 1294 -91 989 -36 
Q 684 19 347 128 
L 347 722 
Q 666 556 975 473 
Q 1284 391 1588 391 
Q 1994 391 2212 530 
Q 2431 669 2431 922 
Q 2431 1156 2273 1281 
Q 2116 1406 1581 1522 
L 1381 1569 
Q 847 1681 609 1914 
Q 372 2147 372 2553 
Q 372 3047 722 3315 
Q 1072 3584 1716 3584 
Q 2034 3584 2315 3537 
Q 2597 3491 2834 3397 
z
" transform="scale(0.015625)"/>
       </defs>
       <use xlink:href="#DejaVuSans-61"/>
       <use xlink:href="#DejaVuSans-66" transform="translate(61.279297 0)"/>
       <use xlink:href="#DejaVuSans-6c" transform="translate(96.484375 0)"/>
       <use xlink:href="#DejaVuSans-70" transform="translate(124.267578 0)"/>
       <use xlink:href="#DejaVuSans-6c" transform="translate(187.744141 0)"/>
       <use xlink:href="#DejaVuSans-75" transform="translate(215.527344 0)"/>
       <use xlink:href="#DejaVuSans-73" transform="translate(278.90625 0)"/>
       <use xlink:href="#DejaVuSans-70" transform="translate(331.005859 0)"/>
       <use xlink:href="#DejaVuSans-6c" transform="translate(394.482422 0)"/>
       <use xlink:href="#DejaVuSans-75" transform="translate(422.265625 0)"/>
       <use xlink:href="#DejaVuSans-73" transform="translate(485.644531 0)"/>
      </g>
     </g>
    </g>
   </g>
   <g id="matplotlib.axis_2">
    <g id="ytick_1">
     <g id="line2d_2">
      <defs>
       <path id="m19a773b403" d="M 0 0 
L -3.5 0 
" style="stroke: #000000; stroke-width: 0.8"/>
      </defs>
      <g>
       <use xlink:href="#m19a773b403" x="23.878125" y="150.138125" style="stroke: #000000; stroke-width: 0.8"/>
      </g>
     </g>
     <g id="text_2">
      <!-- aflplusplus -->
      <g transform="translate(14.798438 177.024844) rotate(-90) scale(0.1 -0.1)">
       <use xlink:href="#DejaVuSans-61"/>
       <use xlink:href="#DejaVuSans-66" transform="translate(61.279297 0)"/>
       <use xlink:href="#DejaVuSans-6c" transform="translate(96.484375 0)"/>
       <use xlink:href="#DejaVuSans-70" transform="translate(124.267578 0)"/>
       <use xlink:href="#DejaVuSans-6c" transform="translate(187.744141 0)"/>
       <use xlink:href="#DejaVuSans-75" transform="translate(215.527344 0)"/>
       <use xlink:href="#DejaVuSans-73" transform="translate(278.90625 0)"/>
       <use xlink:href="#DejaVuSans-70" transform="translate(331.005859 0)"/>
       <use xlink:href="#DejaVuSans-6c" transform="translate(394.482422 0)"/>
       <use xlink:href="#DejaVuSans-75" transform="translate(422.265625 0)"/>
       <use xlink:href="#DejaVuSans-73" transform="translate(485.644531 0)"/>
      </g>
     </g>
    </g>
   </g>
   <g id="text_3">
    <!-- libtiff -->
    <g transform="translate(136.311875 16.318125) scale(0.12 -0.12)">
     <defs>
      <path id="DejaVuSans-69" d="M 603 3500 
L 1178 3500 
L 1178 0 
L 603 0 
L 603 3500 
z
M 603 4863 
L 1178 4863 
L 1178 4134 
L 603 4134 
L 603 4863 
z
" transform="scale(0.015625)"/>
      <path id="DejaVuSans-62" d="M 3116 1747 
Q 3116 2381 2855 2742 
Q 2594 3103 2138 3103 
Q 1681 3103 1420 2742 
Q 1159 2381 1159 1747 
Q 1159 1113 1420 752 
Q 1681 391 2138 391 
Q 2594 391 2855 752 
Q 3116 1113 3116 1747 
z
M 1159 2969 
Q 1341 3281 1617 3432 
Q 1894 3584 2278 3584 
Q 2916 3584 3314 3078 
Q 3713 2572 3713 1747 
Q 3713 922 3314 415 
Q 2916 -91 2278 -91 
Q 1894 -91 1617 61 
Q 1341 213 1159 525 
L 1159 0 
L 581 0 
L 581 4863 
L 1159 4863 
L 1159 2969 
z
" transform="scale(0.015625)"/>
      <path id="DejaVuSans-74" d="M 1172 4494 
L 1172 3500 
L 2356 3500 
L 2356 3053 
L 1172 3053 
L 1172 1153 
Q 1172 725 1289 603 
Q 1406 481 1766 481 
L 2356 481 
L 2356 0 
L 1766 0 
Q 1100 0 847 248 
Q 594 497 594 1153 
L 594 3053 
L 172 3053 
L 172 3500 
L 594 3500 
L 594 4494 
L 1172 4494 
z
" transform="scale(0.015625)"/>
     </defs>
     <use xlink:href="#DejaVuSans-6c"/>
     <use xlink:href="#DejaVuSans-69" transform="translate(27.783203 0)"/>
     <use xlink:href="#DejaVuSans-62" transform="translate(55.566406 0)"/>
     <use xlink:href="#DejaVuSans-74" transform="translate(119.042969 0)"/>
     <use xlink:href="#DejaVuSans-69" transform="translate(158.251953 0)"/>
     <use xlink:href="#DejaVuSans-66" transform="translate(186.035156 0)"/>
     <use xlink:href="#DejaVuSans-66" transform="translate(221.240234 0)"/>
    </g>
   </g>
  </g>
  <g id="axes_2">
   <g id="patch_3">
    <path d="M 850.798125 236.538125 
L 868.078125 236.538125 
L 868.078125 63.738125 
L 850.798125 63.738125 
z
" style="fill: #ffffff"/>
   </g>
   <g id="QuadMesh_2">
    <path d="M 850.798125 236.538125 
L 868.078125 236.538125 
L 868.078125 193.338125 
L 850.798125 193.338125 
L 850.798125 236.538125 
" clip-path="url(#pdf2163d2ac)" style="fill: #005a32"/>
    <path d="M 850.798125 193.338125 
L 868.078125 193.338125 
L 868.078125 150.138125 
L 850.798125 150.138125 
L 850.798125 193.338125 
" clip-path="url(#pdf2163d2ac)" style="fill: #238b45"/>
    <path d="M 850.798125 150.138125 
L 868.078125 150.138125 
L 868.078125 106.938125 
L 850.798125 106.938125 
L 850.798125 150.138125 
" clip-path="url(#pdf2163d2ac)" style="fill: #a1d99b"/>
    <path d="M 850.798125 106.938125 
L 868.078125 106.938125 
L 868.078125 63.738125 
L 850.798125 63.738125 
L 850.798125 106.938125 
" clip-path="url(#pdf2163d2ac)" style="fill: #fbd7d4"/>
   </g>
   <g id="matplotlib.axis_3"/>
   <g id="matplotlib.axis_4">
    <g id="ytick_2">
     <g id="line2d_3"/>
     <g id="text_4">
      <!-- p &lt; 0.001 -->
      <g transform="translate(871.578125 218.737344) scale(0.1 -0.1)">
       <defs>
        <path id="DejaVuSans-20" transform="scale(0.015625)"/>
        <path id="DejaVuSans-3c" d="M 4684 3150 
L 1459 2003 
L 4684 863 
L 4684 294 
L 678 1747 
L 678 2266 
L 4684 3719 
L 4684 3150 
z
" transform="scale(0.015625)"/>
        <path id="DejaVuSans-30" d="M 2034 4250 
Q 1547 4250 1301 3770 
Q 1056 3291 1056 2328 
Q 1056 1369 1301 889 
Q 1547 409 2034 409 
Q 2525 409 2770 889 
Q 3016 1369 3016 2328 
Q 3016 3291 2770 3770 
Q 2525 4250 2034 4250 
z
M 2034 4750 
Q 2819 4750 3233 4129 
Q 3647 3509 3647 2328 
Q 3647 1150 3233 529 
Q 2819 -91 2034 -91 
Q 1250 -91 836 529 
Q 422 1150 422 2328 
Q 422 3509 836 4129 
Q 1250 4750 2034 4750 
z
" transform="scale(0.015625)"/>
        <path id="DejaVuSans-2e" d="M 684 794 
L 1344 794 
L 1344 0 
L 684 0 
L 684 794 
z
" transform="scale(0.015625)"/>
        <path id="DejaVuSans-31" d="M 794 531 
L 1825 531 
L 1825 4091 
L 703 3866 
L 703 4441 
L 1819 4666 
L 2450 4666 
L 2450 531 
L 3481 531 
L 3481 0 
L 794 0 
L 794 531 
z
" transform="scale(0.015625)"/>
       </defs>
       <use xlink:href="#DejaVuSans-70"/>
       <use xlink:href="#DejaVuSans-20" transform="translate(63.476562 0)"/>
       <use xlink:href="#DejaVuSans-3c" transform="translate(95.263672 0)"/>
       <use xlink:href="#DejaVuSans-20" transform="translate(179.052734 0)"/>
       <use xlink:href="#DejaVuSans-30" transform="translate(210.839844 0)"/>
       <use xlink:href="#DejaVuSans-2e" transform="translate(274.462891 0)"/>
       <use xlink:href="#DejaVuSans-30" transform="translate(306.25 0)"/>
       <use xlink:href="#DejaVuSans-30" transform="translate(369.873047 0)"/>
       <use xlink:href="#DejaVuSans-31" transform="translate(433.496094 0)"/>
      </g>
     </g>
    </g>
    <g id="ytick_3">
     <g id="line2d_4"/>
     <g id="text_5">
      <!-- p &lt; 0.01 -->
      <g transform="translate(871.578125 175.537344) scale(0.1 -0.1)">
       <use xlink:href="#DejaVuSans-70"/>
       <use xlink:href="#DejaVuSans-20" transform="translate(63.476562 0)"/>
       <use xlink:href="#DejaVuSans-3c" transform="translate(95.263672 0)"/>
       <use xlink:href="#DejaVuSans-20" transform="translate(179.052734 0)"/>
       <use xlink:href="#DejaVuSans-30" transform="translate(210.839844 0)"/>
       <use xlink:href="#DejaVuSans-2e" transform="translate(274.462891 0)"/>
       <use xlink:href="#DejaVuSans-30" transform="translate(306.25 0)"/>
       <use xlink:href="#DejaVuSans-31" transform="translate(369.873047 0)"/>
      </g>
     </g>
    </g>
    <g id="ytick_4">
     <g id="line2d_5"/>
     <g id="text_6">
      <!-- p &lt; 0.05 -->
      <g transform="translate(871.578125 132.337344) scale(0.1 -0.1)">
       <defs>
        <path id="DejaVuSans-35" d="M 691 4666 
L 3169 4666 
L 3169 4134 
L 1269 4134 
L 1269 2991 
Q 1406 3038 1543 3061 
Q 1681 3084 1819 3084 
Q 2600 3084 3056 2656 
Q 3513 2228 3513 1497 
Q 3513 744 3044 326 
Q 2575 -91 1722 -91 
Q 1428 -91 1123 -41 
Q 819 9 494 109 
L 494 744 
Q 775 591 1075 516 
Q 1375 441 1709 441 
Q 2250 441 2565 725 
Q 2881 1009 2881 1497 
Q 2881 1984 2565 2268 
Q 2250 2553 1709 2553 
Q 1456 2553 1204 2497 
Q 953 2441 691 2322 
L 691 4666 
z
" transform="scale(0.015625)"/>
       </defs>
       <use xlink:href="#DejaVuSans-70"/>
       <use xlink:href="#DejaVuSans-20" transform="translate(63.476562 0)"/>
       <use xlink:href="#DejaVuSans-3c" transform="translate(95.263672 0)"/>
       <use xlink:href="#DejaVuSans-20" transform="translate(179.052734 0)"/>
       <use xlink:href="#DejaVuSans-30" transform="translate(210.839844 0)"/>
       <use xlink:href="#DejaVuSans-2e" transform="translate(274.462891 0)"/>
       <use xlink:href="#DejaVuSans-30" transform="translate(306.25 0)"/>
       <use xlink:href="#DejaVuSans-35" transform="translate(369.873047 0)"/>
      </g>
     </g>
    </g>
    <g id="ytick_5">
     <g id="line2d_6"/>
     <g id="text_7">
      <!-- NS -->
      <g transform="translate(871.578125 89.137344) scale(0.1 -0.1)">
       <defs>
        <path id="DejaVuSans-4e" d="M 628 4666 
L 1478 4666 
L 3547 763 
L 3547 4666 
L 4159 4666 
L 4159 0 
L 3309 0 
L 1241 3903 
L 1241 0 
L 628 0 
L 628 4666 
z
" transform="scale(0.015625)"/>
        <path id="DejaVuSans-53" d="M 3425 4513 
L 3425 3897 
Q 3066 4069 2747 4153 
Q 2428 4238 2131 4238 
Q 1616 4238 1336 4038 
Q 1056 3838 1056 3469 
Q 1056 3159 1242 3001 
Q 1428 2844 1947 2747 
L 2328 2669 
Q 3034 2534 3370 2195 
Q 3706 1856 3706 1288 
Q 3706 609 3251 259 
Q 2797 -91 1919 -91 
Q 1588 -91 1214 -16 
Q 841 59 441 206 
L 441 856 
Q 825 641 1194 531 
Q 1563 422 1919 422 
Q 2459 422 2753 634 
Q 3047 847 3047 1241 
Q 3047 1584 2836 1778 
Q 2625 1972 2144 2069 
L 1759 2144 
Q 1053 2284 737 2584 
Q 422 2884 422 3419 
Q 422 4038 858 4394 
Q 1294 4750 2059 4750 
Q 2388 4750 2728 4690 
Q 3069 4631 3425 4513 
z
" transform="scale(0.015625)"/>
       </defs>
       <use xlink:href="#DejaVuSans-4e"/>
       <use xlink:href="#DejaVuSans-53" transform="translate(74.804688 0)"/>
      </g>
     </g>
    </g>
   </g>
   <g id="LineCollection_1"/>
   <g id="patch_4">
    <path d="M 850.798125 236.538125 
L 859.438125 236.538125 
L 868.078125 236.538125 
L 868.078125 63.738125 
L 859.438125 63.738125 
L 850.798125 63.738125 
L 850.798125 236.538125 
z
" style="fill: none; stroke: #808080; stroke-linejoin: miter; stroke-linecap: square"/>
   </g>
  </g>
 </g>
 <defs>
  <clipPath id="pdf2163d2ac">
   <rect x="850.798125" y="63.738125" width="17.28" height="172.8"/>
  </clipPath>
 </defs>
</svg>
